<?xml version="1.0" standalone="no"?>
<!DOCTYPE svg PUBLIC "-//W3C//DTD SVG 20010904//EN"
 "http://www.w3.org/TR/2001/REC-SVG-20010904/DTD/svg10.dtd">
<svg version="1.0" xmlns="http://www.w3.org/2000/svg"
 width="512.000000pt" height="512.000000pt" viewBox="0 0 512.000000 512.000000"
 preserveAspectRatio="xMidYMid meet">
<metadata>
Created by potrace 1.11, written by Peter Selinger 2001-2013
</metadata>
<g transform="translate(0.000000,512.000000) scale(0.100000,-0.100000)"
fill="#000000" stroke="none">
<path d="M2321 5100 c-36 -12 -54 -14 -62 -6 -9 8 -10 8 -5 -1 4 -7 3 -13 -3
-13 -6 0 -17 -13 -25 -29 -15 -28 -14 -30 20 -68 19 -21 36 -36 37 -33 4 10
91 -72 121 -114 42 -58 86 -148 74 -152 -2 0 2 -7 9 -15 11 -13 20 -59 28
-144 2 -16 4 -31 5 -32 3 -4 3 -42 0 -45 -1 -2 -3 -24 -5 -51 -2 -26 -6 -55
-10 -65 -5 -9 -7 -25 -6 -34 1 -10 -2 -18 -6 -18 -5 0 -10 -11 -11 -25 -5 -56
-7 -65 -14 -65 -4 0 -8 -9 -8 -20 0 -11 -5 -20 -12 -20 -6 0 -9 -3 -5 -6 3 -4
-5 -28 -19 -55 -23 -43 -28 -47 -49 -39 -13 5 -25 7 -28 4 -2 -3 -8 12 -13 33
-10 41 -9 139 1 213 10 72 12 161 3 166 -4 3 -8 16 -8 28 0 13 -7 29 -15 36
-8 6 -14 15 -13 18 2 18 -5 30 -34 63 -80 87 -150 99 -176 29 -7 -17 -4 -28
10 -42 10 -10 24 -18 31 -18 22 0 59 -70 60 -116 1 -24 6 -44 10 -44 4 0 3 -8
-2 -19 -6 -10 -8 -21 -5 -23 2 -3 -1 -18 -7 -34 -7 -16 -11 -37 -10 -46 1 -10
-2 -18 -7 -18 -5 0 -9 -6 -9 -12 0 -7 -13 -40 -29 -73 -15 -33 -27 -63 -26
-67 1 -5 -3 -8 -8 -8 -6 0 -10 -5 -10 -11 0 -13 -67 -115 -97 -149 -13 -14
-23 -28 -23 -32 0 -13 -263 -337 -292 -358 -3 -3 -19 -21 -35 -40 -15 -19 -35
-36 -45 -38 -37 -6 -31 105 12 203 38 86 40 95 27 113 -5 6 -6 12 -3 12 4 0 1
7 -8 15 -11 11 -23 13 -43 8 -15 -4 -30 -8 -33 -8 -19 -5 -70 -34 -93 -55 -16
-14 -31 -23 -33 -20 -3 3 -14 -10 -25 -27 -12 -18 -26 -33 -32 -33 -6 0 -8 -3
-4 -6 3 -3 1 -11 -4 -18 -5 -6 -21 -24 -34 -41 -33 -39 -96 -161 -88 -169 4
-3 2 -6 -4 -6 -5 0 -10 -6 -10 -12 -1 -15 -41 -134 -55 -160 -5 -12 -4 -18 4
-18 8 0 9 -3 3 -8 -12 -9 -15 -29 -19 -154 -2 -54 0 -98 3 -98 3 0 7 -17 8
-37 2 -32 24 -61 43 -55 11 2 16 48 9 74 -4 14 -5 29 -1 32 3 3 6 21 7 38 2
35 12 92 21 121 6 20 44 44 44 27 0 -5 7 -18 15 -27 8 -10 16 -22 16 -28 0 -5
5 -16 11 -23 6 -7 8 -15 5 -18 -3 -3 -1 -18 4 -32 7 -18 6 -28 -3 -34 -7 -4
-8 -8 -2 -8 6 0 12 -21 13 -47 2 -27 5 -66 7 -88 2 -22 5 -52 7 -67 1 -16 6
-28 10 -28 5 0 5 -4 2 -10 -3 -5 -1 -10 4 -10 6 0 10 -3 9 -7 -12 -48 119
-240 172 -251 8 -2 17 -7 20 -10 3 -4 19 -14 37 -24 41 -21 47 -8 23 60 -10
29 -17 52 -15 52 3 0 0 11 -5 25 -6 15 -6 26 1 30 5 4 7 10 5 14 -8 12 30 62
57 76 39 20 66 -6 71 -65 2 -25 5 -45 6 -45 1 0 3 -16 6 -35 7 -54 11 -74 18
-92 4 -9 9 -22 10 -30 4 -19 22 -56 54 -111 31 -52 127 -158 136 -149 3 3 6 0
6 -6 0 -7 6 -12 14 -12 8 0 17 -7 20 -16 4 -10 12 -14 24 -9 12 4 14 3 7 -4
-7 -7 -22 -7 -47 -1 -20 6 -58 12 -85 15 -26 2 -49 5 -50 6 -2 1 -6 2 -10 3
-5 1 -14 5 -20 9 -8 5 -13 3 -13 -4 0 -8 -4 -8 -12 -2 -7 6 -21 9 -30 8 -10
-2 -18 0 -18 4 0 6 -25 11 -67 14 -7 0 -13 3 -13 7 0 3 -8 6 -17 7 -87 5 -104
7 -109 14 -2 5 -11 6 -19 2 -8 -3 -15 -1 -15 5 0 6 -10 8 -22 4 -15 -4 -19 -2
-13 7 5 10 3 11 -11 4 -17 -8 -39 -10 -46 -3 -6 4 -45 10 -93 14 -27 3 -50 6
-50 6 0 2 -50 7 -118 11 -26 1 -47 5 -47 8 0 3 -20 7 -45 8 -25 1 -56 10 -71
19 -22 15 -24 18 -9 27 9 5 19 6 22 3 4 -3 13 -1 20 6 9 7 17 8 21 2 9 -12 32
-16 32 -5 0 5 20 8 45 8 25 -1 45 -6 45 -11 0 -4 6 -4 13 1 16 13 153 7 282
-12 94 -14 117 -19 130 -27 6 -3 28 -7 50 -9 22 -1 45 -5 50 -8 29 -16 56 6
53 44 -3 32 -11 39 -63 55 -22 7 -44 16 -50 20 -5 5 -27 11 -47 15 -23 4 -35
11 -31 18 4 6 1 7 -6 2 -7 -4 -23 -3 -34 3 -39 19 -112 39 -129 36 -10 -1 -18
1 -18 6 0 4 -21 11 -47 14 -27 4 -57 10 -68 12 -11 2 -40 6 -65 9 -25 2 -45 5
-45 6 0 11 -281 11 -292 -1 -4 -4 -13 -6 -65 -14 -27 -5 -48 -13 -48 -18 0 -5
-4 -7 -10 -3 -11 7 -125 -49 -195 -97 -54 -36 -185 -163 -185 -179 0 -6 -4 -8
-9 -5 -8 5 -36 -42 -33 -56 1 -5 -3 -8 -8 -8 -6 0 -20 -19 -31 -42 -11 -24
-28 -59 -38 -78 -10 -19 -18 -45 -16 -57 1 -12 -1 -20 -5 -18 -7 5 -21 -46
-25 -91 -1 -11 -5 -27 -10 -34 -6 -9 -4 -11 4 -5 10 6 11 3 2 -13 -13 -25 -10
-52 9 -81 15 -22 16 -22 35 -4 11 10 21 27 23 38 3 25 4 27 26 95 10 30 26 62
37 71 10 9 15 19 12 23 -4 3 -1 6 5 6 6 0 13 8 17 18 14 41 109 78 127 50 16
-26 7 -51 -48 -134 -31 -47 -57 -90 -58 -97 -1 -7 -7 -22 -14 -34 -7 -12 -13
-30 -15 -40 -1 -10 -5 -22 -8 -28 -4 -5 -5 -18 -4 -27 2 -10 -1 -18 -6 -18 -4
0 -6 -7 -3 -15 4 -8 2 -15 -3 -15 -5 0 -8 -20 -8 -45 1 -25 -3 -45 -7 -45 -5
0 -4 -9 2 -20 8 -14 8 -20 0 -20 -7 0 -8 -6 -1 -18 6 -10 6 -24 1 -32 -5 -8
-6 -18 -3 -23 3 -5 7 -23 9 -40 6 -50 10 -66 17 -73 4 -4 7 -20 7 -36 0 -15 5
-28 11 -28 5 0 8 -3 6 -8 -3 -4 0 -18 6 -32 5 -14 11 -32 13 -40 2 -8 8 -16
13 -18 6 -2 11 -10 11 -18 0 -8 4 -14 8 -14 4 0 16 -15 27 -32 34 -59 112
-129 138 -126 44 6 56 29 64 113 2 28 5 58 6 68 1 9 5 17 10 17 4 0 6 4 3 9
-3 5 1 22 9 37 8 16 15 37 15 47 0 9 4 17 9 17 5 0 13 9 16 21 7 22 25 47 62
86 12 13 19 23 16 23 -4 0 8 11 27 25 19 14 37 31 42 37 4 7 8 9 8 4 0 -6 6
-2 13 7 15 20 163 97 187 97 9 0 20 3 24 8 4 4 11 7 14 8 4 0 25 4 47 9 22 5
43 8 48 7 4 -1 7 2 7 7 0 5 14 8 31 7 16 -1 33 2 35 6 3 5 12 4 20 -3 9 -7 14
-8 14 -1 0 11 39 10 58 -2 22 -14 12 -49 -24 -82 -19 -19 -42 -34 -49 -34 -8
0 -18 -6 -22 -13 -8 -14 -73 -43 -85 -39 -5 1 -8 -2 -8 -7 0 -5 -15 -15 -32
-22 -70 -28 -158 -106 -174 -151 -3 -10 -10 -18 -16 -18 -6 0 -9 -3 -5 -6 3
-4 0 -18 -7 -33 -17 -31 -16 -121 0 -138 6 -7 23 -15 37 -18 31 -8 61 21 63
62 1 16 2 36 3 45 1 15 81 107 81 93 0 -3 7 1 16 9 8 9 20 14 25 11 5 -4 9 -1
9 6 0 7 3 9 6 6 4 -3 16 -1 27 5 12 6 34 11 49 10 15 0 28 3 28 6 0 15 313 24
347 11 18 -6 22 -6 17 3 -5 7 -3 8 5 4 7 -5 33 -10 59 -12 26 -2 63 -6 82 -9
19 -3 55 -7 79 -10 25 -3 48 -10 52 -16 4 -8 8 -8 13 0 5 7 15 7 34 -1 15 -6
41 -12 57 -13 17 -2 30 -4 30 -5 0 -2 14 -4 30 -5 17 -2 30 -4 30 -5 0 -3 17
-6 65 -14 14 -2 27 -5 30 -6 3 -1 8 -2 13 -1 9 1 9 -2 -3 -34 -5 -14 -14 -23
-20 -20 -5 3 -10 2 -10 -4 0 -6 -16 -13 -35 -17 -19 -3 -37 -9 -39 -13 -2 -3
-25 -6 -50 -6 -25 0 -46 -2 -46 -5 0 -3 -14 -6 -32 -7 -17 -1 -41 -12 -53 -23
-12 -11 -25 -17 -30 -13 -4 5 -3 -2 3 -13 6 -12 8 -24 5 -28 -4 -4 2 -9 14
-12 12 -3 23 -15 26 -25 3 -11 9 -19 14 -18 21 4 33 -2 33 -16 0 -8 3 -14 8
-14 16 3 72 -14 72 -22 0 -5 14 -9 30 -9 17 0 30 -5 30 -12 0 -9 4 -8 10 2 8
12 10 12 10 1 0 -11 3 -11 15 -1 8 7 15 8 15 4 0 -5 17 -10 38 -11 20 -1 61
-4 90 -6 29 -2 54 -1 57 3 2 4 14 6 27 5 13 -1 26 3 30 9 5 8 8 7 8 -2 0 -9 5
-10 19 -3 10 6 21 7 25 4 3 -3 6 -2 6 3 0 5 12 9 28 8 15 -1 32 1 37 5 6 3 21
7 35 9 13 2 28 9 32 15 4 7 8 9 8 5 0 -11 101 30 124 50 15 13 17 14 11 2 -6
-11 -3 -10 12 3 11 9 23 14 28 10 4 -5 5 -3 2 3 -6 11 19 29 35 26 4 -1 12 7
18 18 6 11 15 18 21 15 5 -4 12 2 16 12 4 10 13 23 20 28 15 11 7 49 -7 40 -5
-3 -11 -1 -15 4 -3 6 -13 3 -24 -7 -17 -16 -81 -54 -91 -54 -3 0 -14 -5 -25
-11 -21 -12 -24 -13 -70 -22 -16 -3 -31 -8 -33 -10 -2 -2 -10 2 -17 8 -10 10
-10 17 0 37 16 31 50 70 60 70 5 0 23 11 41 25 19 14 35 25 36 24 2 -2 28 16
58 39 30 23 59 42 63 42 5 0 5 5 2 10 -3 5 -2 10 4 10 21 0 103 95 137 159 12
22 24 38 26 35 7 -6 8 8 12 128 3 90 1 108 -12 113 -9 3 -20 -1 -26 -12 -11
-20 -93 -102 -104 -104 -58 -11 -101 1 -121 32 -11 18 -7 25 29 60 22 21 44
39 49 39 13 0 139 129 155 159 59 114 70 139 73 161 2 14 4 31 5 38 1 6 5 12
10 12 4 0 8 9 8 19 0 27 15 35 17 9 1 -12 6 -24 10 -27 4 -3 9 -15 11 -26 3
-25 4 -27 29 -92 3 -10 5 -21 5 -25 -1 -5 6 -8 17 -8 14 0 21 -10 26 -36 3
-20 10 -44 15 -53 24 -49 60 -141 54 -141 -2 0 3 -15 13 -33 9 -17 18 -35 19
-39 1 -5 3 -11 4 -15 1 -5 2 -11 1 -15 0 -5 4 -8 9 -8 6 0 10 -7 10 -15 0 -9
8 -30 17 -48 9 -18 16 -36 15 -40 -1 -4 4 -15 13 -23 8 -9 15 -24 15 -35 0
-10 4 -19 9 -19 8 0 24 -37 22 -52 -1 -5 4 -8 9 -8 5 0 9 -3 8 -8 -1 -4 4 -23
11 -42 20 -51 23 -100 5 -100 -8 0 -14 5 -14 11 0 6 -6 16 -12 23 -7 8 -20 24
-28 36 -8 12 -20 28 -26 34 -6 6 -11 13 -12 16 -4 22 -23 59 -31 64 -6 4 -18
24 -28 44 -9 20 -23 43 -30 50 -7 8 -11 18 -8 23 4 5 1 9 -4 9 -6 0 -11 6 -11
13 0 7 -10 33 -22 58 -11 24 -21 50 -21 57 0 6 -3 12 -7 12 -8 0 -33 83 -33
106 0 8 -4 14 -8 14 -3 0 -9 10 -12 23 -3 12 -11 38 -19 58 l-14 37 -34 -17
c-29 -14 -35 -22 -34 -46 1 -42 10 -97 19 -117 4 -10 8 -36 8 -58 1 -22 5 -40
10 -40 4 0 7 -13 7 -28 0 -16 3 -32 7 -36 4 -3 8 -17 10 -29 2 -12 10 -38 18
-58 7 -20 11 -39 8 -43 -4 -3 0 -6 7 -6 7 0 11 -3 7 -6 -3 -4 0 -19 8 -34 8
-15 11 -30 8 -34 -4 -3 -2 -6 4 -6 5 0 10 -6 10 -13 0 -21 96 -217 106 -217 6
0 8 -3 4 -6 -12 -12 177 -224 200 -224 4 0 14 -9 21 -20 7 -11 17 -20 23 -20
6 0 17 -7 26 -16 9 -8 22 -13 30 -10 8 3 11 1 8 -4 -3 -6 -1 -10 5 -10 6 0 29
-9 51 -19 21 -11 36 -14 32 -8 -3 7 3 4 14 -6 14 -13 23 -15 28 -7 5 8 11 8
19 1 7 -6 16 -8 19 -4 4 3 7 2 7 -4 0 -6 10 -9 23 -9 12 1 28 -2 36 -8 7 -6
28 -11 45 -12 17 -1 31 -3 31 -4 0 -1 24 -3 53 -4 28 0 52 1 52 4 0 3 24 6 53
7 28 0 66 4 82 8 17 4 35 8 40 9 6 1 16 5 23 9 6 5 16 6 21 3 5 -4 11 -1 13 4
2 6 10 12 18 14 31 5 65 19 78 32 7 8 18 11 24 8 7 -4 8 -2 4 5 -4 6 0 14 8
17 9 3 16 15 16 26 0 10 -4 16 -10 13 -5 -3 -10 -1 -10 5 0 7 -8 9 -21 5 -12
-4 -29 -9 -38 -10 -9 -2 -16 -4 -16 -5 0 -1 -16 -4 -35 -7 -19 -2 -37 -8 -40
-11 -3 -4 -23 -6 -45 -5 -63 4 -120 10 -122 13 -2 1 -6 3 -10 4 -15 2 -48 31
-59 51 -13 23 3 45 31 45 9 0 13 5 9 11 -4 8 -1 8 13 1 11 -6 33 -11 49 -11
16 -1 47 -2 69 -3 63 -3 163 12 169 25 3 8 5 8 5 -2 1 -11 4 -11 18 0 9 8 17
13 17 11 1 -1 15 2 31 8 17 6 34 10 39 9 5 0 12 4 16 11 4 6 14 12 22 14 9 1
22 7 29 13 8 6 24 14 37 17 12 4 22 12 22 17 0 5 6 9 14 9 8 0 17 7 20 16 4 9
9 14 12 11 4 -3 11 -1 18 4 34 28 67 59 63 59 -2 0 10 15 27 33 37 40 150 253
141 267 -3 6 -2 10 2 10 17 0 14 66 -4 86 -19 20 -43 29 -43 16 0 -5 -15 -8
-34 -7 -24 0 -32 -3 -29 -12 3 -7 0 -13 -6 -13 -18 0 -19 0 -58 -17 -42 -17
-81 -25 -130 -27 -18 0 -33 -4 -33 -8 0 -4 -11 -3 -25 2 -18 7 -25 6 -25 -3 0
-8 -3 -8 -8 -2 -4 6 -25 12 -47 14 -22 2 -48 7 -57 12 -10 5 -18 7 -18 3 0 -3
-7 0 -17 7 -9 8 -27 14 -40 14 -13 1 -28 7 -32 14 -5 7 -12 12 -17 12 -18 -1
-44 11 -44 20 0 6 -4 7 -10 4 -5 -3 -10 -2 -10 2 0 5 -14 17 -31 27 -18 10
-49 37 -70 59 -22 21 -39 36 -39 33 0 -4 -15 10 -32 31 -18 21 -41 47 -51 58
-31 33 -59 95 -45 95 9 0 8 3 -2 10 -8 5 -13 10 -10 10 3 1 21 3 41 6 21 3 40
1 43 -5 4 -6 13 -8 21 -4 8 3 15 0 15 -6 0 -6 7 -11 16 -11 9 0 12 -5 8 -12
-4 -7 -4 -10 1 -6 9 9 50 -12 84 -41 13 -12 30 -21 38 -21 7 0 12 -5 10 -12
-1 -7 4 -12 11 -13 7 0 16 -6 21 -13 5 -8 11 -13 15 -13 3 1 20 -6 36 -14 17
-9 30 -13 30 -9 0 4 6 2 13 -3 6 -5 34 -11 62 -12 27 -2 53 -5 57 -7 5 -3 8 1
8 8 0 9 3 9 10 -2 6 -9 10 -11 10 -3 0 7 6 10 14 7 8 -3 17 -1 20 5 4 6 14 7
23 4 11 -4 14 -3 9 5 -4 7 -1 12 10 12 21 0 64 45 64 68 0 25 -36 76 -44 63
-4 -6 -16 -11 -27 -11 -10 0 -19 -5 -19 -11 0 -6 -7 -9 -15 -6 -8 4 -17 2 -20
-3 -6 -10 -70 -8 -81 3 -4 4 -16 7 -26 7 -10 0 -18 5 -18 11 0 5 -4 7 -10 4
-5 -3 -31 13 -57 37 -53 47 -50 44 -78 83 -11 15 -28 35 -37 44 -10 8 -18 19
-18 24 0 4 -5 13 -10 20 -41 48 -50 62 -50 74 0 7 -3 13 -8 13 -4 0 -13 15
-21 32 -7 18 -26 59 -42 91 -16 32 -29 65 -29 73 0 8 -4 14 -10 14 -5 0 -10 8
-10 18 0 10 -4 22 -9 28 -8 8 -70 163 -76 189 -1 6 -7 22 -13 36 -11 28 -35
108 -37 124 -1 12 15 25 33 25 18 0 95 -73 128 -123 25 -37 42 -55 92 -97 8
-7 12 -7 12 -1 0 6 6 8 14 5 12 -5 27 18 31 46 0 3 4 11 8 18 5 6 5 17 2 22
-4 6 -1 17 5 25 10 12 10 15 -1 15 -11 0 -11 2 1 10 12 8 12 10 1 10 -11 0
-11 3 -1 15 10 12 9 15 -6 16 -11 0 -14 3 -8 5 12 5 10 56 -2 76 -5 7 -9 20
-11 28 -1 8 -6 23 -11 35 -35 74 -61 135 -59 138 1 1 -8 13 -20 27 -13 13 -23
28 -23 32 0 5 -11 21 -25 36 -14 15 -25 30 -25 34 0 9 -129 138 -169 168 -18
14 -39 30 -46 37 -7 7 -31 22 -54 34 -22 11 -41 26 -41 33 0 7 -4 6 -9 -3 -7
-11 -13 -9 -29 7 -11 11 -23 18 -26 15 -2 -3 -11 -1 -18 3 -7 5 -17 9 -23 10
-5 1 -14 3 -20 4 -22 5 -45 -1 -45 -11 0 -11 91 -106 97 -102 8 5 42 -11 37
-18 -3 -5 1 -9 9 -9 8 0 32 -16 53 -35 31 -29 36 -38 24 -45 -8 -5 -17 -7 -21
-4 -4 2 -11 0 -14 -6 -4 -7 -12 -7 -18 -2 -7 4 -19 8 -27 7 -8 -1 -28 5 -44
13 -15 7 -26 9 -22 4 3 -5 -32 10 -78 34 -47 23 -87 40 -90 37 -3 -4 -6 -2 -6
4 0 11 -29 19 -110 29 -25 4 -53 10 -62 15 -10 6 -18 6 -18 2 0 -10 -52 -9
-68 1 -6 3 -13 2 -17 -4 -4 -6 -10 -8 -15 -5 -5 3 -23 -8 -40 -25 -17 -17 -35
-28 -41 -25 -5 4 -9 2 -9 -2 0 -5 -15 -17 -33 -26 -27 -15 -33 -23 -29 -43 4
-23 13 -27 65 -27 9 0 17 -4 17 -9 0 -5 4 -7 8 -4 15 9 72 -33 72 -53 0 -11 5
-23 10 -26 8 -5 7 -11 -1 -21 -6 -8 -8 -14 -4 -14 4 0 2 -6 -4 -14 -6 -7 -19
-13 -29 -12 -15 2 -82 30 -136 58 -13 7 -16 7 -12 -1 8 -12 -39 -8 -101 9 -20
5 -35 5 -39 -1 -3 -5 -11 -6 -17 -2 -15 9 -49 12 -61 5 -5 -3 -23 -7 -40 -8
-29 -2 -68 -10 -73 -14 -2 -2 -11 -3 -20 -5 -26 -3 -54 -15 -88 -39 l-30 -21
25 34 c14 18 30 40 35 48 6 8 24 30 40 48 17 18 39 43 49 56 43 53 171 194
178 197 5 2 5 8 2 14 -3 5 3 12 15 15 12 3 21 12 21 19 0 8 5 14 12 14 6 0 9
3 5 6 -3 3 7 18 22 33 16 14 34 36 40 49 7 12 16 20 22 17 5 -4 9 3 9 15 0 11
7 23 15 26 8 4 15 10 15 16 0 5 6 15 13 22 6 8 36 47 66 88 47 66 106 117 118
104 7 -7 -20 -76 -29 -76 -4 0 -7 -3 -6 -7 3 -14 -25 -63 -35 -63 -6 0 -8 -3
-4 -6 3 -4 -1 -13 -9 -21 -8 -8 -12 -19 -9 -24 4 -5 1 -9 -4 -9 -6 0 -11 -6
-11 -12 0 -7 -10 -25 -23 -40 -13 -15 -32 -39 -43 -54 -39 -54 -88 -111 -154
-176 -73 -74 -107 -126 -97 -151 7 -18 70 -39 75 -25 2 4 10 8 17 8 7 0 15 4
17 9 2 5 37 37 78 71 136 112 198 176 307 314 35 45 68 87 74 94 24 29 99 189
99 210 0 12 4 22 8 22 4 0 9 8 10 18 2 21 10 57 12 57 2 0 10 37 12 63 1 12 7
22 13 22 5 0 3 5 -5 10 -8 5 -10 10 -5 10 6 0 9 23 8 52 -1 29 -2 53 -3 53 -1
0 -4 16 -6 35 -3 19 -8 42 -11 50 -3 8 -8 26 -10 40 -2 13 -8 27 -11 30 -4 3
-7 15 -6 28 1 12 -2 22 -6 22 -5 0 -7 8 -6 17 3 16 -55 143 -76 168 -5 6 -19
24 -31 41 -32 45 -114 134 -124 134 -4 0 -19 12 -33 26 -26 29 -66 47 -81 38
-5 -3 -9 -1 -9 4 0 5 -6 9 -14 9 -8 0 -12 -6 -9 -14 3 -7 -1 -13 -7 -13 -7 0
-3 -8 8 -19 12 -10 22 -22 22 -26 0 -4 8 -15 18 -24 40 -39 84 -89 87 -102 9
-39 18 -59 27 -59 6 0 8 -7 5 -15 -4 -8 -2 -17 2 -19 23 -14 -7 -112 -34 -114
-22 -1 -58 45 -70 91 -2 4 -4 9 -5 12 -1 3 -3 8 -4 13 -2 13 -58 104 -80 130
-37 43 -117 122 -124 122 -4 0 -19 11 -34 24 -14 14 -29 22 -32 19 -3 -4 -6
-1 -6 5 0 7 -6 12 -14 12 -8 0 -16 4 -18 8 -8 19 -166 80 -190 74 -5 -1 -8 2
-8 6 0 11 -6 12 -132 16 -81 3 -118 0 -157 -14z m969 -623 c0 -10 5 -15 10
-12 11 7 14 -8 4 -18 -10 -10 -10 -157 0 -157 5 0 3 -6 -3 -14 -6 -8 -11 -18
-10 -22 1 -5 0 -12 -1 -16 -1 -5 -3 -11 -5 -15 -1 -5 -8 -21 -15 -38 -7 -16
-13 -33 -12 -37 3 -13 -58 -70 -70 -65 -13 4 -18 52 -9 72 6 12 10 30 13 68 1
16 6 31 10 33 5 3 5 11 1 17 -9 14 -11 77 -3 77 4 0 6 16 5 35 -1 19 3 35 8
35 6 0 7 3 4 6 -7 7 8 39 27 60 16 18 46 13 46 -9z m-995 -464 c11 -25 13
-103 3 -103 -4 0 -8 -9 -8 -20 0 -10 -5 -32 -12 -47 -16 -39 -100 -176 -113
-185 -5 -4 -7 -8 -3 -8 8 0 -18 -34 -54 -71 -9 -9 -14 -19 -12 -21 2 -3 -7
-15 -20 -27 l-24 -23 -7 31 c-3 17 -4 35 0 41 3 5 1 10 -5 10 -7 0 -9 8 -4 22
3 12 8 36 10 54 4 40 40 113 59 121 8 3 13 9 10 13 -3 4 5 19 16 34 11 14 17
26 12 26 -4 0 -3 4 2 8 6 4 24 27 40 52 17 25 33 47 38 48 4 2 7 8 7 14 0 12
38 48 50 48 5 0 11 -8 15 -17z m-337 -471 c13 -9 25 -132 13 -132 -3 0 -7 -11
-8 -25 -4 -45 -6 -55 -14 -55 -7 0 -24 -49 -21 -62 1 -5 -3 -8 -9 -8 -5 0 -7
-4 -4 -10 3 -5 1 -10 -4 -10 -6 0 -10 -3 -9 -7 1 -5 -6 -24 -17 -43 -10 -19
-20 -44 -22 -55 -2 -10 -8 -22 -15 -26 -6 -4 -7 -12 -4 -18 4 -6 2 -11 -5 -11
-7 0 -10 -3 -6 -6 3 -4 -1 -13 -9 -21 -8 -8 -12 -18 -9 -23 3 -4 -2 -13 -10
-20 -8 -7 -12 -16 -9 -21 3 -5 0 -9 -5 -9 -6 0 -10 -3 -9 -7 4 -13 -32 -80
-51 -97 -10 -9 -32 -21 -49 -26 -28 -7 -34 -5 -53 18 -21 27 -21 36 -7 150 1
6 5 12 10 12 4 0 8 10 8 22 0 21 76 188 90 198 3 3 20 29 36 57 16 29 32 53
37 53 4 0 7 5 7 11 0 6 20 37 45 69 25 32 45 62 45 66 0 8 32 43 40 43 3 0 11
-3 18 -7z m-476 -59 c7 -27 -3 -150 -14 -168 -3 -6 -9 -28 -12 -51 -8 -49 -40
-104 -60 -104 -14 0 -28 23 -30 50 -1 8 -5 21 -9 28 -5 7 -3 12 5 12 8 0 9 3
3 8 -12 8 -12 52 -1 102 9 37 53 110 67 110 5 0 9 7 9 15 0 21 37 19 42 -2z
m2303 -251 c27 -7 76 -42 95 -66 27 -35 50 -96 37 -97 -32 -3 -55 5 -89 32
-20 16 -42 29 -48 29 -6 0 -8 5 -5 10 3 6 0 10 -7 10 -23 0 -77 67 -71 89 4
17 9 18 36 9 18 -5 41 -12 52 -16z m-455 -44 c0 12 22 1 69 -33 59 -44 161
-166 161 -194 0 -6 5 -11 11 -11 5 0 7 -4 4 -10 -3 -5 -2 -10 2 -10 11 0 125
-227 123 -245 0 -3 6 -18 15 -34 10 -21 11 -31 3 -33 -15 -5 -78 15 -78 24 0
5 -7 8 -15 8 -8 0 -15 5 -15 10 0 6 -5 10 -12 10 -14 0 -88 81 -88 98 0 6 -4
12 -9 12 -4 0 -28 30 -52 68 -23 37 -48 72 -54 77 -7 6 -29 37 -50 70 -21 33
-42 62 -45 65 -12 9 -19 50 -9 50 6 0 6 7 0 18 -13 25 -13 30 7 50 11 12 20
14 24 8 5 -7 8 -7 8 2z m-715 -483 c19 -2 45 -17 45 -26 0 -6 -8 -5 -19 1 -28
15 -57 12 -76 -6 -8 -9 -22 -13 -30 -10 -8 3 -15 1 -15 -3 0 -5 -9 -7 -19 -4
-23 6 -83 -35 -74 -51 4 -6 2 -7 -3 -3 -5 5 -9 14 -9 20 0 18 37 58 65 70 34
14 103 25 115 18 6 -3 15 -6 20 -6z m110 -128 c-3 -12 -7 -34 -11 -49 -3 -15
-5 -31 -4 -34 1 -4 -2 -10 -7 -13 -5 -3 -19 -19 -31 -35 -22 -29 -30 -20 -12
13 5 10 12 33 15 52 3 18 10 36 15 39 5 3 12 17 15 33 8 32 26 27 20 -6z
m-309 -3 c-3 -8 -1 -14 4 -14 6 0 10 -7 10 -14 0 -19 45 -68 53 -59 4 3 7 0 7
-9 0 -8 9 -23 20 -33 11 -10 20 -24 20 -32 0 -8 5 -11 12 -7 7 4 8 3 4 -5 -17
-28 -139 79 -128 113 2 5 -3 13 -10 17 -11 7 -11 9 0 9 8 0 10 5 6 12 -11 18
-12 48 -2 42 5 -4 7 -12 4 -20z m74 2 c0 -2 -7 -7 -16 -10 -8 -3 -12 -2 -9 4
6 10 25 14 25 6z m88 -25 c-13 -21 -28 -19 -28 5 0 8 9 14 20 14 17 0 19 -3 8
-19z m1132 -73 c0 -5 5 -8 11 -6 12 4 41 -17 90 -66 28 -28 38 -46 70 -123 8
-18 17 -33 21 -33 5 0 8 -8 8 -19 0 -10 7 -24 15 -31 8 -6 14 -15 13 -18 -1
-4 6 -24 16 -45 17 -35 15 -67 -3 -38 -5 7 -11 12 -15 12 -3 -1 -11 -1 -16 -1
-15 0 -121 111 -115 120 3 4 -2 11 -11 14 -8 3 -13 10 -10 15 4 5 3 11 -1 13
-15 6 -113 195 -113 217 0 5 9 7 20 4 11 -3 20 -10 20 -15z m-2807 -152 c42
-10 34 -49 -13 -60 -3 -1 -15 -7 -27 -14 -13 -7 -23 -10 -23 -7 0 4 -16 -3
-35 -15 -19 -12 -35 -18 -35 -14 0 4 -7 -1 -15 -12 -8 -10 -15 -16 -15 -11 0
4 -15 0 -32 -10 -31 -16 -39 -19 -70 -26 -7 -1 -17 -5 -23 -9 -18 -11 -69 0
-81 17 -10 13 -9 20 4 34 9 10 20 16 24 14 4 -2 14 7 22 19 9 12 16 19 16 14
0 -5 7 -3 15 4 8 7 15 9 15 6 0 -4 7 0 16 8 8 9 22 16 30 16 8 0 14 5 14 12 0
6 3 8 7 5 3 -4 11 -3 17 2 18 13 104 34 115 27 5 -4 12 -2 16 3 3 6 11 8 18 6
7 -2 24 -6 40 -9z m1690 -670 c16 17 85 12 123 -7 40 -20 43 -26 35 -72 0 -4
-11 -12 -23 -17 -13 -6 -30 -14 -38 -19 -20 -13 -53 -25 -62 -23 -5 1 -8 -2
-8 -6 0 -5 -6 -9 -12 -10 -7 -1 -31 -4 -53 -8 -22 -3 -70 -7 -107 -8 -38 0
-68 -5 -68 -9 0 -5 -5 -5 -11 -1 -6 3 -45 8 -87 10 -43 2 -108 7 -147 9 -38 3
-79 6 -91 6 -12 0 -21 6 -21 14 0 8 4 15 9 15 4 0 8 6 8 13 0 11 71 58 95 63
60 12 84 17 110 19 17 1 30 4 30 5 0 1 27 3 60 5 33 1 83 6 110 10 28 4 60 7
73 7 12 0 25 4 28 9 3 5 13 5 23 -1 10 -5 21 -7 24 -4z m-829 -8 c59 -2 106
-5 106 -8 0 -3 23 -5 50 -5 28 0 50 -4 50 -10 0 -5 5 -3 10 5 8 12 10 11 10
-7 0 -25 -43 -62 -82 -70 -16 -3 -28 -9 -28 -14 0 -5 -8 -9 -18 -9 -10 0 -24
-6 -31 -12 -11 -11 -12 -10 -6 2 7 12 6 13 -6 4 -15 -12 -74 -12 -85 -1 -4 3
-15 2 -25 -3 -12 -7 -20 -7 -24 0 -4 7 -12 7 -24 0 -10 -5 -21 -6 -25 -3 -3 4
-36 8 -74 10 -90 4 -109 9 -115 33 -4 15 4 25 31 42 21 12 39 26 40 30 2 5 10
4 18 -3 11 -9 14 -9 14 1 0 8 9 11 25 8 15 -3 22 -1 18 5 -4 6 0 8 9 5 8 -4
21 -2 28 2 8 5 17 7 21 4 5 -2 55 -5 113 -6z m1866 -369 c0 -5 4 -8 9 -4 6 3
13 0 18 -7 10 -17 76 -67 128 -98 22 -13 42 -28 43 -32 2 -4 9 -8 16 -8 17 0
77 -55 69 -63 -3 -4 -2 -7 4 -7 11 0 24 -59 14 -61 -3 0 -14 -2 -23 -4 -10 -2
-18 1 -18 6 0 6 -5 7 -10 4 -6 -3 -13 1 -16 9 -3 9 -10 13 -16 10 -5 -3 -18 2
-29 12 -10 9 -19 13 -19 8 0 -5 -6 -2 -13 6 -7 9 -26 22 -44 29 -17 7 -34 19
-37 28 -3 8 -11 11 -18 7 -7 -4 -10 -4 -6 0 4 5 -3 19 -15 32 -39 41 -58 71
-61 96 -1 3 -4 10 -8 14 -9 8 9 34 23 34 5 0 9 -5 9 -11z m-1009 -46 c9 -9 0
-23 -35 -58 -25 -26 -46 -43 -46 -40 0 4 -12 -1 -27 -11 -31 -20 -131 -28
-150 -12 -9 7 -13 7 -13 -1 0 -9 -5 -9 -20 -1 -11 6 -20 7 -20 3 0 -4 -5 -2
-12 5 -9 9 -5 18 16 37 16 14 31 24 33 21 3 -3 18 3 32 13 14 10 32 16 39 14
6 -3 12 -1 12 4 0 4 12 9 28 10 15 1 45 8 67 15 47 16 80 17 96 1z"/>
</g>
</svg>
